<?xml version="1.0" encoding="UTF-8"?>
<!DOCTYPE svg PUBLIC "-//W3C//DTD SVG 1.1//EN" "http://www.w3.org/Graphics/SVG/1.1/DTD/svg11.dtd">
<svg xmlns="http://www.w3.org/2000/svg" version="1.1" width="542px" height="508px" style="shape-rendering:geometricPrecision; text-rendering:geometricPrecision; image-rendering:optimizeQuality; fill-rule:evenodd; clip-rule:evenodd" xmlns:xlink="http://www.w3.org/1999/xlink">
<g><path style="opacity:0.726" fill="#fefffe" d="M 192.5,-0.5 C 216.5,-0.5 240.5,-0.5 264.5,-0.5C 266.519,1.50574 268.852,3.1724 271.5,4.5C 275.029,9.593 277.196,15.2597 278,21.5C 279.621,24.6412 281.121,27.8078 282.5,31C 283.309,47.9416 284.976,64.9416 287.5,82C 286.428,86.1236 286.262,90.2903 287,94.5C 290.543,111.732 293.21,129.065 295,146.5C 297.682,149.35 300.516,152.016 303.5,154.5C 312.417,155.724 320.417,159.057 327.5,164.5C 340.1,167.966 351.433,173.799 361.5,182C 364.855,183.118 368.022,184.618 371,186.5C 371.333,186.167 371.667,185.833 372,185.5C 382.167,193 392.333,200.5 402.5,208C 405.565,212.272 408.732,216.438 412,220.5C 413.602,226.372 416.269,231.705 420,236.5C 421.963,247.351 421.963,258.351 420,269.5C 416.447,277.143 413.447,285.143 411,293.5C 401.819,307.198 393.153,321.198 385,335.5C 381.545,337.282 379.212,339.948 378,343.5C 371.854,350.013 366.854,356.68 363,363.5C 359.897,367.114 357.73,371.281 356.5,376C 358.958,380.454 362.125,384.288 366,387.5C 368.97,393.449 372.303,399.116 376,404.5C 377.011,411.146 377.844,417.813 378.5,424.5C 378.112,434.401 378.112,444.401 378.5,454.5C 378.333,463.167 378.167,471.833 378,480.5C 376.803,483.089 375.803,485.756 375,488.5C 370.494,492.673 366.327,497.173 362.5,502C 359.295,502.912 356.961,504.745 355.5,507.5C 350.833,507.5 346.167,507.5 341.5,507.5C 275.167,506.167 208.833,506.167 142.5,507.5C 138.833,507.5 135.167,507.5 131.5,507.5C 121.943,501.441 114.11,493.441 108,483.5C 107.178,481.212 106.511,478.878 106,476.5C 105.467,461.082 104.3,445.749 102.5,430.5C 102.503,423.589 102.67,416.589 103,409.5C 104.126,405.535 105.126,401.535 106,397.5C 111.514,390.322 117.014,383.156 122.5,376C 120.219,369.932 117.053,364.432 113,359.5C 107.698,354.842 102.864,349.842 98.5,344.5C 92.0134,336.858 86.0134,328.858 80.5,320.5C 77.6669,313.49 73.8336,307.156 69,301.5C 67.6662,295.168 64.9996,289.501 61,284.5C 58.7106,278.676 57.0439,272.676 56,266.5C 50.4948,255.678 46.1615,244.678 43,233.5C 37.8059,214.397 32.1392,195.397 26,176.5C 23.841,169.1 24.0077,161.766 26.5,154.5C 28.8021,150.367 31.3021,146.367 34,142.5C 39.8465,139.086 45.6798,134.92 51.5,130C 57.2118,127.732 63.0452,124.899 69,121.5C 69.3333,121.833 69.6667,122.167 70,122.5C 70.677,120.311 71.8437,119.978 73.5,121.5C 83.5168,118.832 93.5168,118.999 103.5,122C 110.596,126.215 117.929,129.881 125.5,133C 126.833,134.667 128.167,136.333 129.5,138C 132.102,138.883 134.269,140.383 136,142.5C 137.937,146.435 140.604,149.768 144,152.5C 144.959,156.414 146.459,160.081 148.5,163.5C 151.027,164.214 153.527,164.88 156,165.5C 157.852,161.743 159.019,157.743 159.5,153.5C 159.391,146.264 159.391,139.097 159.5,132C 161.566,118.338 164.399,104.838 168,91.5C 168.503,79.1253 169.503,66.7919 171,54.5C 174.677,41.4475 177.344,28.1141 179,14.5C 181.251,10.5748 183.917,6.90808 187,3.5C 188.812,2.02294 190.645,0.689603 192.5,-0.5 Z M 199.5,3.5 C 199.948,1.53545 200.948,1.20211 202.5,2.5C 201.675,3.38568 200.675,3.71901 199.5,3.5 Z M 252.5,1.5 C 256.155,0.924965 259.155,1.92497 261.5,4.5C 258.834,4.06704 256.168,3.56704 253.5,3C 252.944,2.61742 252.611,2.11742 252.5,1.5 Z M 270.5,12.5 C 273.19,14.2593 273.856,16.5926 272.5,19.5C 271.579,17.2235 270.913,14.8901 270.5,12.5 Z M 185.5,14.5 C 185.719,15.675 185.386,16.675 184.5,17.5C 183.335,16.1405 183.668,15.1405 185.5,14.5 Z M 273.5,20.5 C 274.793,22.3635 274.793,24.3635 273.5,26.5C 273.254,24.7805 273.254,22.7805 273.5,20.5 Z M 234.5,42.5 C 237.19,44.2593 237.856,46.5926 236.5,49.5C 235.579,47.2235 234.913,44.8901 234.5,42.5 Z M 222.5,43.5 C 222.719,44.675 222.386,45.675 221.5,46.5C 220.335,45.1405 220.668,44.1405 222.5,43.5 Z M 178.5,45.5 C 178.56,44.9569 178.893,44.6236 179.5,44.5C 180.631,46.0745 180.798,47.7412 180,49.5C 179.79,47.9419 179.29,46.6085 178.5,45.5 Z M 219.5,47.5 C 220.289,47.7828 220.956,48.2828 221.5,49C 220.184,49.5281 219.517,49.0281 219.5,47.5 Z M 177.5,50.5 C 178.725,51.1522 179.392,52.3189 179.5,54C 179.333,55.1667 179.167,56.3333 179,57.5C 177.798,55.3225 177.298,52.9892 177.5,50.5 Z M 218.5,50.5 C 219.234,51.8775 219.901,53.3775 220.5,55C 220.167,55.1667 219.833,55.3333 219.5,55.5C 218.548,53.9547 218.215,52.288 218.5,50.5 Z M 237.5,50.5 C 238.8,53.0241 238.8,55.6908 237.5,58.5C 237.324,56.1143 237.324,53.4476 237.5,50.5 Z M 229.5,52.5 C 231.973,52.6043 232.639,53.6043 231.5,55.5C 234.402,87.5765 237.402,119.577 240.5,151.5C 240.167,152.167 239.833,152.833 239.5,153.5C 241.771,163.241 244.271,172.908 247,182.5C 248.873,184.709 251.04,186.542 253.5,188C 261.328,189.452 268.662,192.118 275.5,196C 286.938,196.698 297.105,200.532 306,207.5C 314.538,211.769 323.205,215.769 332,219.5C 333.478,220.978 334.978,222.478 336.5,224C 344.736,227.904 352.736,232.237 360.5,237C 364.198,241.932 367.531,246.598 370.5,251C 369.978,253.481 369.978,255.814 370.5,258C 366.405,264.025 363.238,270.525 361,277.5C 355.87,282.09 352.537,287.756 351,294.5C 345.248,303 339.248,311.333 333,319.5C 328.846,321.653 326.18,324.986 325,329.5C 316.508,339.318 309.674,350.151 304.5,362C 302.861,365.295 300.528,367.962 297.5,370C 259.167,370.667 220.833,370.667 182.5,370C 180.608,369.027 178.608,368.36 176.5,368C 174.811,364.121 172.978,360.288 171,356.5C 169.926,355.382 168.76,354.382 167.5,353.5C 166.359,348.445 164.359,343.778 161.5,339.5C 153.546,330.376 145.38,321.376 137,312.5C 131.849,304.738 126.516,297.071 121,289.5C 118.893,284.159 116.226,279.159 113,274.5C 109.717,265.311 106.05,256.311 102,247.5C 95.9908,228.728 89.9908,210.061 84,191.5C 82.6705,185.548 82.3372,179.548 83,173.5C 83.6891,172.643 84.5224,171.977 85.5,171.5C 88.0666,171.778 90.7333,171.944 93.5,172C 96.9704,176.142 100.47,180.308 104,184.5C 110.263,197.36 116.263,210.36 122,223.5C 127.591,231.42 134.758,237.586 143.5,242C 157.172,246.722 169.505,244.556 180.5,235.5C 184.174,230.663 188.008,225.997 192,221.5C 193.89,215.953 196.223,210.62 199,205.5C 200.501,200.161 202.001,194.828 203.5,189.5C 204.629,177.359 207.129,165.359 211,153.5C 214.791,127.54 218.457,101.54 222,75.5C 222.721,71.6578 224.387,68.3245 227,65.5C 228.05,61.1966 228.884,56.8632 229.5,52.5 Z M 278.5,63.5 C 277.207,61.6365 277.207,59.6365 278.5,57.5C 278.746,59.2195 278.746,61.2195 278.5,63.5 Z M 176.5,58.5 C 177.586,58.62 178.253,59.2867 178.5,60.5C 178.167,61.1667 177.833,61.8333 177.5,62.5C 176.571,61.3112 176.238,59.9778 176.5,58.5 Z M 278.5,63.5 C 279.993,64.3121 280.66,65.6455 280.5,67.5C 280.167,68.5 279.833,69.5 279.5,70.5C 278.526,68.2573 278.192,65.924 278.5,63.5 Z M 280.5,71.5 C 281.793,73.3635 281.793,75.3635 280.5,77.5C 280.254,75.7805 280.254,73.7805 280.5,71.5 Z M 214.5,74.5 C 214.56,73.9569 214.893,73.6236 215.5,73.5C 216.652,76.1062 216.818,78.7728 216,81.5C 215.814,78.9644 215.314,76.631 214.5,74.5 Z M 212.5,96.5 C 212.687,91.6431 213.52,86.9765 215,82.5C 215.667,85.1667 215.667,87.8333 215,90.5C 214.963,92.9739 214.13,94.9739 212.5,96.5 Z M 171.5,105.5 C 171.398,100.887 171.398,96.5534 171.5,92.5C 172.811,96.9838 172.811,101.317 171.5,105.5 Z M 241.5,93.5 C 242.239,93.369 242.906,93.5357 243.5,94C 242.695,98.7488 242.195,103.582 242,108.5C 241.501,103.511 241.334,98.5111 241.5,93.5 Z M 212.5,96.5 C 212.807,98.4458 212.807,100.113 212.5,101.5C 211.212,99.7015 211.212,98.0348 212.5,96.5 Z M 171.5,105.5 C 171.813,108.247 171.48,110.914 170.5,113.5C 170.167,112.333 169.833,111.167 169.5,110C 169.307,107.992 169.974,106.492 171.5,105.5 Z M 242.5,109.5 C 243.818,112.258 244.485,115.424 244.5,119C 244.167,122.167 243.833,125.333 243.5,128.5C 242.504,122.202 242.17,115.868 242.5,109.5 Z M 168.5,114.5 C 169.205,117.228 169.872,120.061 170.5,123C 170.167,123.167 169.833,123.333 169.5,123.5C 168.516,120.572 168.183,117.572 168.5,114.5 Z M 284.5,121.5 C 285.239,121.369 285.906,121.536 286.5,122C 285.118,126.705 284.451,126.539 284.5,121.5 Z M 82.5,125.5 C 81.3646,127.213 79.698,127.88 77.5,127.5C 78.6354,125.787 80.302,125.12 82.5,125.5 Z M 91.5,125.5 C 93.698,125.12 95.3646,125.787 96.5,127.5C 94.302,127.88 92.6354,127.213 91.5,125.5 Z M 287.5,138.5 C 286.883,138.389 286.383,138.056 286,137.5C 285.333,133.833 285.333,130.167 286,126.5C 287.424,130.297 287.924,134.297 287.5,138.5 Z M 244.5,129.5 C 245.818,136.011 245.818,142.678 244.5,149.5C 244.436,143.112 244.436,136.445 244.5,129.5 Z M 206.5,131.5 C 206.56,130.957 206.893,130.624 207.5,130.5C 208.652,133.106 208.818,135.773 208,138.5C 207.814,135.964 207.314,133.631 206.5,131.5 Z M 58.5,132.5 C 58.0269,133.906 57.0269,134.573 55.5,134.5C 55.9731,133.094 56.9731,132.427 58.5,132.5 Z M 113.5,132.5 C 115.027,132.427 116.027,133.094 116.5,134.5C 114.973,134.573 113.973,133.906 113.5,132.5 Z M 287.5,138.5 C 288.776,139.386 288.776,140.386 287.5,141.5C 286.913,140.767 286.913,139.767 287.5,138.5 Z M 47.5,139.5 C 47.3059,141.912 45.9726,142.912 43.5,142.5C 44.4363,141.026 45.7697,140.026 47.5,139.5 Z M 205.5,147.5 C 205.187,144.753 205.52,142.086 206.5,139.5C 206.833,140.667 207.167,141.833 207.5,143C 207.693,145.008 207.026,146.508 205.5,147.5 Z M 38.5,147.5 C 38.1667,148.5 37.5,149.167 36.5,149.5C 36.5,148.167 37.1667,147.5 38.5,147.5 Z M 205.5,147.5 C 205.746,149.78 205.746,151.78 205.5,153.5C 204.207,151.364 204.207,149.364 205.5,147.5 Z M 164.5,148.5 C 164.813,151.247 164.48,153.914 163.5,156.5C 163.167,155.333 162.833,154.167 162.5,153C 162.307,150.992 162.974,149.492 164.5,148.5 Z M 33.5,152.5 C 33.5386,153.756 33.0386,154.756 32,155.5C 31.4153,154.002 31.9153,153.002 33.5,152.5 Z M 30.5,156.5 C 31.2161,158.556 31.8828,160.723 32.5,163C 32.1667,163.167 31.8333,163.333 31.5,163.5C 30.5258,161.257 30.1924,158.924 30.5,156.5 Z M 139.5,156.5 C 140.289,156.783 140.956,157.283 141.5,158C 140.184,158.528 139.517,158.028 139.5,156.5 Z M 161.5,157.5 C 162.205,160.228 162.872,163.061 163.5,166C 163.167,166.167 162.833,166.333 162.5,166.5C 161.516,163.572 161.183,160.572 161.5,157.5 Z M 142.5,162.5 C 140.668,161.86 140.335,160.86 141.5,159.5C 142.386,160.325 142.719,161.325 142.5,162.5 Z M 310.5,161.5 C 312.38,161.229 313.713,161.896 314.5,163.5C 312.62,163.771 311.287,163.104 310.5,161.5 Z M 30.5,166.5 C 31.2389,166.369 31.9056,166.536 32.5,167C 31.7362,169.069 31.2362,171.236 31,173.5C 30.5034,171.19 30.3367,168.857 30.5,166.5 Z M 80.5,167.5 C 80.5,169.5 79.5,170.5 77.5,170.5C 78.1667,169.167 79.1667,168.167 80.5,167.5 Z M 248.5,168.5 C 249.239,168.369 249.906,168.536 250.5,169C 249.123,176.342 248.456,176.176 248.5,168.5 Z M 325.5,168.5 C 328.216,168.386 330.216,169.386 331.5,171.5C 329.033,171.245 327.033,170.245 325.5,168.5 Z M 77.5,170.5 C 77.0481,173.203 76.3815,175.87 75.5,178.5C 74.0154,175.248 74.682,172.581 77.5,170.5 Z M 102.5,172.5 C 103.289,172.783 103.956,173.283 104.5,174C 103.184,174.528 102.517,174.028 102.5,172.5 Z M 31.5,174.5 C 32.5862,174.62 33.2528,175.287 33.5,176.5C 33.1667,177.167 32.8333,177.833 32.5,178.5C 31.5713,177.311 31.238,175.978 31.5,174.5 Z M 104.5,175.5 C 106.273,176.314 106.773,177.648 106,179.5C 104.812,178.437 104.312,177.103 104.5,175.5 Z M 154.5,175.5 C 155.906,175.973 156.573,176.973 156.5,178.5C 155.094,178.027 154.427,177.027 154.5,175.5 Z M 198.5,183.5 C 198.192,181.076 198.526,178.743 199.5,176.5C 199.833,177.5 200.167,178.5 200.5,179.5C 200.66,181.355 199.993,182.688 198.5,183.5 Z M 251.5,176.5 C 252.598,177.601 252.765,178.934 252,180.5C 250.489,179.436 250.323,178.103 251.5,176.5 Z M 342.5,176.5 C 344.179,176.285 345.179,176.952 345.5,178.5C 343.973,178.573 342.973,177.906 342.5,176.5 Z M 34.5,183.5 C 32.1414,182.611 31.9747,181.278 34,179.5C 34.49,180.793 34.6567,182.127 34.5,183.5 Z M 76.5,179.5 C 77.7759,180.386 77.7759,181.386 76.5,182.5C 75.913,181.767 75.913,180.767 76.5,179.5 Z M 352.5,181.5 C 354.027,181.427 355.027,182.094 355.5,183.5C 353.973,183.573 352.973,182.906 352.5,181.5 Z M 34.5,183.5 C 35.7759,184.386 35.7759,185.386 34.5,186.5C 33.913,185.767 33.913,184.767 34.5,183.5 Z M 77.5,183.5 C 78.782,184.708 78.782,186.042 77.5,187.5C 77.0941,186.443 77.0941,185.109 77.5,183.5 Z M 198.5,183.5 C 198.746,185.78 198.746,187.78 198.5,189.5C 197.207,187.364 197.207,185.364 198.5,183.5 Z M 355.5,183.5 C 356.5,183.833 357.167,184.5 357.5,185.5C 356.167,185.5 355.5,184.833 355.5,183.5 Z M 111.5,187.5 C 112.906,187.973 113.573,188.973 113.5,190.5C 112.094,190.027 111.427,189.027 111.5,187.5 Z M 113.5,190.5 C 114.773,191.077 114.773,191.743 113.5,192.5C 112.537,192.03 112.537,191.363 113.5,190.5 Z M 276.5,190.5 C 277.978,190.238 279.311,190.571 280.5,191.5C 278.76,192.809 277.427,192.476 276.5,190.5 Z M 367.5,190.5 C 369.027,190.427 370.027,191.094 370.5,192.5C 368.973,192.573 367.973,191.906 367.5,190.5 Z M 37.5,193.5 C 39.6456,193.696 39.8122,194.696 38,196.5C 37.5172,195.552 37.3505,194.552 37.5,193.5 Z M 38.5,197.5 C 40.4646,197.948 40.7979,198.948 39.5,200.5C 38.6143,199.675 38.281,198.675 38.5,197.5 Z M 298.5,197.5 C 300.429,197.231 302.095,197.731 303.5,199C 301.326,199.877 299.659,199.377 298.5,197.5 Z M 382.5,200.5 C 381.357,200.092 380.357,199.425 379.5,198.5C 381.396,197.361 382.396,198.027 382.5,200.5 Z M 41.5,205.5 C 39.1414,204.611 38.9747,203.278 41,201.5C 41.49,202.793 41.6567,204.127 41.5,205.5 Z M 80.5,201.5 C 82.6456,201.696 82.8122,202.696 81,204.5C 80.5172,203.552 80.3505,202.552 80.5,201.5 Z M 192.5,203.5 C 193.077,202.227 193.743,202.227 194.5,203.5C 194.03,204.463 193.363,204.463 192.5,203.5 Z M 120.5,205.5 C 119.711,205.217 119.044,204.717 118.5,204C 119.816,203.472 120.483,203.972 120.5,205.5 Z M 312.5,204.5 C 314.827,204.247 316.827,204.914 318.5,206.5C 318.333,206.833 318.167,207.167 318,207.5C 315.791,207.011 313.958,206.011 312.5,204.5 Z M 41.5,205.5 C 42.782,206.708 42.782,208.042 41.5,209.5C 41.0941,208.443 41.0941,207.109 41.5,205.5 Z M 81.5,205.5 C 83.0853,206.474 84.0853,207.974 84.5,210C 82.2266,209.683 81.2266,208.183 81.5,205.5 Z M 120.5,205.5 C 121.773,206.077 121.773,206.743 120.5,207.5C 119.537,207.03 119.537,206.363 120.5,205.5 Z M 190.5,212.5 C 190.699,210.04 191.365,207.707 192.5,205.5C 193.469,208.264 192.802,210.598 190.5,212.5 Z M 389.5,205.5 C 391.027,205.427 392.027,206.094 392.5,207.5C 390.973,207.573 389.973,206.906 389.5,205.5 Z M 326.5,211.5 C 328.973,211.088 330.306,212.088 330.5,214.5C 329.128,213.488 327.795,212.488 326.5,211.5 Z M 190.5,212.5 C 191.087,213.767 191.087,214.767 190.5,215.5C 189.224,214.386 189.224,213.386 190.5,212.5 Z M 124.5,216.5 C 127.001,216.511 127.168,217.178 125,218.5C 124.536,217.906 124.369,217.239 124.5,216.5 Z M 401.5,216.5 C 403.708,217.918 404.542,219.918 404,222.5C 402.681,220.713 401.848,218.713 401.5,216.5 Z M 45.5,221.5 C 44.218,220.292 44.218,218.958 45.5,217.5C 45.9059,218.557 45.9059,219.891 45.5,221.5 Z M 128.5,223.5 C 126.727,222.686 126.227,221.352 127,219.5C 127.791,220.745 128.291,222.078 128.5,223.5 Z M 45.5,221.5 C 46.2891,221.783 46.9558,222.283 47.5,223C 46.184,223.528 45.5173,223.028 45.5,221.5 Z M 89.5,230.5 C 88.2121,228.965 88.2121,227.299 89.5,225.5C 90.0522,227.003 90.0522,228.669 89.5,230.5 Z M 48.5,226.5 C 49.7759,227.386 49.7759,228.386 48.5,229.5C 47.913,228.767 47.913,227.767 48.5,226.5 Z M 409.5,229.5 C 410.289,229.783 410.956,230.283 411.5,231C 410.184,231.528 409.517,231.028 409.5,229.5 Z M 89.5,230.5 C 91.6157,232.088 91.949,234.088 90.5,236.5C 89.5344,234.604 89.2011,232.604 89.5,230.5 Z M 138.5,233.5 C 140.484,233.383 142.15,234.05 143.5,235.5C 141.422,236.307 139.755,235.641 138.5,233.5 Z M 175.5,233.5 C 174.341,235.25 172.674,236.25 170.5,236.5C 171.659,234.75 173.326,233.75 175.5,233.5 Z M 364.5,234.5 C 366.179,234.285 367.179,234.952 367.5,236.5C 365.973,236.573 364.973,235.906 364.5,234.5 Z M 91.5,237.5 C 92.7733,238.077 92.7733,238.743 91.5,239.5C 90.537,239.03 90.537,238.363 91.5,237.5 Z M 51.5,240.5 C 52.2389,240.369 52.9056,240.536 53.5,241C 52.1177,245.705 51.4511,245.539 51.5,240.5 Z M 414.5,242.5 C 415.187,247.9 415.854,253.4 416.5,259C 416.167,259.167 415.833,259.333 415.5,259.5C 414.505,253.872 414.171,248.206 414.5,242.5 Z M 372.5,245.5 C 373.566,244.308 374.399,244.641 375,246.5C 375.828,250.871 375.661,255.205 374.5,259.5C 373.833,254.683 373.166,250.017 372.5,245.5 Z M 52.5,246.5 C 53.0768,245.227 53.7435,245.227 54.5,246.5C 55.4847,248.098 55.6514,249.765 55,251.5C 54.0147,249.825 53.1814,248.158 52.5,246.5 Z M 95.5,246.5 C 98.0009,246.511 98.1676,247.178 96,248.5C 95.5357,247.906 95.369,247.239 95.5,246.5 Z M 96.5,249.5 C 98.337,249.639 98.6704,250.306 97.5,251.5C 96.7025,251.043 96.3691,250.376 96.5,249.5 Z M 98.5,252.5 C 99.7733,253.077 99.7733,253.743 98.5,254.5C 97.537,254.03 97.537,253.363 98.5,252.5 Z M 372.5,260.5 C 373.224,262.218 373.891,264.052 374.5,266C 374.167,266.167 373.833,266.333 373.5,266.5C 372.534,264.604 372.201,262.604 372.5,260.5 Z M 59.5,262.5 C 60.2389,262.369 60.9056,262.536 61.5,263C 60.1177,267.705 59.4511,267.539 59.5,262.5 Z M 60.5,267.5 C 62.3442,268.204 62.8442,269.537 62,271.5C 60.8118,270.437 60.3118,269.103 60.5,267.5 Z M 103.5,267.5 C 105.641,268.755 106.307,270.422 105.5,272.5C 104.438,270.978 103.771,269.312 103.5,267.5 Z M 62.5,272.5 C 63.7733,273.077 63.7733,273.743 62.5,274.5C 61.537,274.03 61.537,273.363 62.5,272.5 Z M 106.5,273.5 C 107.573,274.251 107.74,275.251 107,276.5C 105.272,275.648 105.105,274.648 106.5,273.5 Z M 368.5,273.5 C 368.122,276.022 367.289,278.355 366,280.5C 365.162,277.519 365.995,275.186 368.5,273.5 Z M 410.5,275.5 C 411.077,274.227 411.743,274.227 412.5,275.5C 412.03,276.463 411.363,276.463 410.5,275.5 Z M 409.5,277.5 C 411.337,277.639 411.67,278.306 410.5,279.5C 409.702,279.043 409.369,278.376 409.5,277.5 Z M 67.5,281.5 C 69.1042,282.287 69.7709,283.62 69.5,285.5C 67.8958,284.713 67.2291,283.38 67.5,281.5 Z M 110.5,283.5 C 111.077,282.227 111.743,282.227 112.5,283.5C 113.326,284.451 113.492,285.451 113,286.5C 112.148,285.429 111.315,284.429 110.5,283.5 Z M 69.5,285.5 C 70.7759,286.386 70.7759,287.386 69.5,288.5C 68.913,287.767 68.913,286.767 69.5,285.5 Z M 402.5,292.5 C 404.337,292.639 404.67,293.306 403.5,294.5C 402.702,294.043 402.369,293.376 402.5,292.5 Z M 119.5,297.5 C 118.711,297.217 118.044,296.717 117.5,296C 118.816,295.472 119.483,295.972 119.5,297.5 Z M 76.5,302.5 C 74.6231,301.341 74.1231,299.674 75,297.5C 76.2692,298.905 76.7692,300.571 76.5,302.5 Z M 353.5,301.5 C 352.537,300.637 352.537,299.97 353.5,299.5C 354.773,300.257 354.773,300.923 353.5,301.5 Z M 124.5,303.5 C 125.906,303.973 126.573,304.973 126.5,306.5C 125.094,306.027 124.427,305.027 124.5,303.5 Z M 395.5,306.5 C 395.461,305.244 395.961,304.244 397,303.5C 397.585,304.998 397.085,305.998 395.5,306.5 Z M 127.5,307.5 C 128.404,308.209 128.737,309.209 128.5,310.5C 126.519,309.895 126.185,308.895 127.5,307.5 Z M 394.5,307.5 C 395.463,308.363 395.463,309.03 394.5,309.5C 393.227,308.743 393.227,308.077 394.5,307.5 Z M 344.5,313.5 C 344.517,311.972 345.184,311.472 346.5,312C 345.956,312.717 345.289,313.217 344.5,313.5 Z M 84.5,316.5 C 83.1522,315.473 82.6522,314.14 83,312.5C 84.1882,313.563 84.6882,314.897 84.5,316.5 Z M 131.5,312.5 C 132.289,312.783 132.956,313.283 133.5,314C 132.184,314.528 131.517,314.028 131.5,312.5 Z M 338.5,319.5 C 338.573,321.027 337.906,322.027 336.5,322.5C 336.427,320.973 337.094,319.973 338.5,319.5 Z M 331.5,328.5 C 331.483,330.028 330.816,330.528 329.5,330C 330.044,329.283 330.711,328.783 331.5,328.5 Z M 145.5,329.5 C 147.63,331.127 149.63,332.96 151.5,335C 148.474,334.481 146.474,332.648 145.5,329.5 Z M 380.5,329.5 C 381.815,330.895 381.481,331.895 379.5,332.5C 379.263,331.209 379.596,330.209 380.5,329.5 Z M 375.5,335.5 C 375.771,337.38 375.104,338.713 373.5,339.5C 373.229,337.62 373.896,336.287 375.5,335.5 Z M 154.5,340.5 C 155.906,340.973 156.573,341.973 156.5,343.5C 155.094,343.027 154.427,342.027 154.5,340.5 Z M 370.5,342.5 C 370.573,344.027 369.906,345.027 368.5,345.5C 368.427,343.973 369.094,342.973 370.5,342.5 Z M 106.5,343.5 C 107.773,344.077 107.773,344.743 106.5,345.5C 105.537,345.03 105.537,344.363 106.5,343.5 Z M 367.5,346.5 C 367.573,348.027 366.906,349.027 365.5,349.5C 365.427,347.973 366.094,346.973 367.5,346.5 Z M 109.5,347.5 C 110.289,347.783 110.956,348.283 111.5,349C 110.184,349.528 109.517,349.028 109.5,347.5 Z M 318.5,347.5 C 318.483,349.028 317.816,349.528 316.5,349C 317.044,348.283 317.711,347.783 318.5,347.5 Z M 161.5,352.5 C 160.227,351.923 160.227,351.257 161.5,350.5C 162.463,350.97 162.463,351.637 161.5,352.5 Z M 315.5,353.5 C 315.281,352.325 315.614,351.325 316.5,350.5C 317.665,351.86 317.332,352.86 315.5,353.5 Z M 161.5,352.5 C 162.837,353.315 163.837,354.482 164.5,356C 162.522,355.967 161.522,354.8 161.5,352.5 Z M 117.5,356.5 C 119.481,357.105 119.815,358.105 118.5,359.5C 117.596,358.791 117.263,357.791 117.5,356.5 Z M 360.5,356.5 C 360.771,358.38 360.104,359.713 358.5,360.5C 358.229,358.62 358.896,357.287 360.5,356.5 Z M 168.5,363.5 C 170.745,364.292 171.078,365.625 169.5,367.5C 168.566,366.432 168.232,365.099 168.5,363.5 Z M 308.5,364.5 C 309.077,363.227 309.743,363.227 310.5,364.5C 310.03,365.463 309.363,365.463 308.5,364.5 Z M 125.5,369.5 C 127.185,370.184 128.185,371.517 128.5,373.5C 128.167,373.833 127.833,374.167 127.5,374.5C 126.438,372.978 125.771,371.312 125.5,369.5 Z M 351.5,369.5 C 352.239,369.369 352.906,369.536 353.5,370C 350.856,374.838 350.189,374.672 351.5,369.5 Z M 299.5,374.5 C 300.14,372.668 301.14,372.335 302.5,373.5C 301.675,374.386 300.675,374.719 299.5,374.5 Z M 126.5,377.5 C 127.239,377.369 127.906,377.536 128.5,378C 126.25,382.574 125.583,382.407 126.5,377.5 Z M 351.5,379.5 C 353.273,380.314 353.773,381.648 353,383.5C 351.812,382.437 351.312,381.103 351.5,379.5 Z M 124.5,382.5 C 127.001,382.511 127.168,383.178 125,384.5C 124.536,383.906 124.369,383.239 124.5,382.5 Z M 113.5,397.5 C 113.25,399.674 112.25,401.341 110.5,402.5C 110.75,400.326 111.75,398.659 113.5,397.5 Z M 367.5,401.5 C 366.711,401.217 366.044,400.717 365.5,400C 366.816,399.472 367.483,399.972 367.5,401.5 Z M 368.5,402.5 C 369.776,403.386 369.776,404.386 368.5,405.5C 367.913,404.767 367.913,403.767 368.5,402.5 Z M 371.5,412.5 C 372.239,412.369 372.906,412.536 373.5,413C 372.695,417.749 372.195,422.582 372,427.5C 371.501,422.511 371.334,417.511 371.5,412.5 Z M 161.5,415.5 C 159.887,417.088 157.887,418.088 155.5,418.5C 155.414,417.504 155.748,416.671 156.5,416C 158.134,415.506 159.801,415.34 161.5,415.5 Z M 316.5,415.5 C 319.385,415.194 322.052,415.527 324.5,416.5C 321.466,418.102 318.799,417.769 316.5,415.5 Z M 155.5,418.5 C 154.998,420.085 153.998,420.585 152.5,420C 153.244,418.961 154.244,418.461 155.5,418.5 Z M 328.5,420.5 C 329.289,420.783 329.956,421.283 330.5,422C 329.184,422.528 328.517,422.028 328.5,420.5 Z M 157.5,421.5 C 210.834,421.333 264.168,421.5 317.5,422C 318.536,423.617 319.703,423.784 321,422.5C 322.861,424.888 324.194,427.554 325,430.5C 326.044,440.153 326.377,449.82 326,459.5C 325.167,460.333 324.333,461.167 323.5,462C 270.502,462.487 217.669,462.653 165,462.5C 162.476,461.896 159.976,461.229 157.5,460.5C 154.862,447.492 154.862,434.492 157.5,421.5 Z M 331.5,430.5 C 330.007,429.688 329.34,428.355 329.5,426.5C 329.833,425.5 330.167,424.5 330.5,423.5C 331.474,425.743 331.808,428.076 331.5,430.5 Z M 372.5,428.5 C 374.352,440.459 375.352,452.793 375.5,465.5C 375.577,470.284 374.91,474.95 373.5,479.5C 373.052,462.589 372.719,445.589 372.5,428.5 Z M 331.5,430.5 C 332.811,434.683 332.811,439.016 331.5,443.5C 331.398,439.447 331.398,435.113 331.5,430.5 Z M 157.5,466.5 C 161.846,466.334 166.179,466.501 170.5,467C 172.974,467.037 174.974,467.87 176.5,469.5C 170.165,468.225 163.832,467.225 157.5,466.5 Z M 318.5,467.5 C 318.389,468.117 318.056,468.617 317.5,469C 270.835,469.5 224.168,469.667 177.5,469.5C 177.611,468.883 177.944,468.383 178.5,468C 225.165,467.5 271.832,467.333 318.5,467.5 Z M 110.5,469.5 C 111.239,469.369 111.906,469.536 112.5,470C 111.119,476.02 110.453,475.853 110.5,469.5 Z M 111.5,475.5 C 113.332,476.14 113.665,477.14 112.5,478.5C 111.614,477.675 111.281,476.675 111.5,475.5 Z M 367.5,487.5 C 367.771,489.38 367.104,490.713 365.5,491.5C 365.229,489.62 365.896,488.287 367.5,487.5 Z M 118.5,488.5 C 119.906,488.973 120.573,489.973 120.5,491.5C 119.094,491.027 118.427,490.027 118.5,488.5 Z M 125.5,495.5 C 126.906,495.973 127.573,496.973 127.5,498.5C 126.094,498.027 125.427,497.027 125.5,495.5 Z M 360.5,495.5 C 360.396,497.973 359.396,498.639 357.5,497.5C 358.357,496.575 359.357,495.908 360.5,495.5 Z M 136.5,503.5 C 138.027,503.427 139.027,504.094 139.5,505.5C 137.973,505.573 136.973,504.906 136.5,503.5 Z M 348.5,503.5 C 348.027,504.906 347.027,505.573 345.5,505.5C 345.973,504.094 346.973,503.427 348.5,503.5 Z"/></g>
<g><path style="opacity:0.639" fill="#fefffe" d="M 541.5,87.5 C 541.5,89.1667 541.5,90.8333 541.5,92.5C 538.805,100.062 533.471,105.895 525.5,110C 524.398,113.477 521.898,116.311 518,118.5C 517.667,118.167 517.333,117.833 517,117.5C 515.387,122.111 512.387,125.445 508,127.5C 506.256,131.963 503.089,134.963 498.5,136.5C 497.749,137.376 497.249,138.376 497,139.5C 492.841,142.659 489.008,146.159 485.5,150C 477.373,153.978 469.873,153.144 463,147.5C 460.546,141.094 461.213,135.094 465,129.5C 469.167,126 473,122.167 476.5,118C 474.999,116.748 473.332,115.748 471.5,115C 427.5,114.667 383.5,114.333 339.5,114C 321.754,107.026 316.254,94.8596 323,77.5C 325.872,74.9634 328.372,72.1301 330.5,69C 332.833,68 335.167,67 337.5,66C 382.144,64.7148 426.81,64.0481 471.5,64C 472.672,62.1316 472.505,60.2983 471,58.5C 466.899,54.5785 463.732,49.4118 461.5,43C 462.646,30.528 469.312,25.8613 481.5,29C 489.234,33.7495 496.401,39.9161 503,47.5C 514.455,57.5657 526.121,68.2323 538,79.5C 539.478,82.1579 540.645,84.8245 541.5,87.5 Z M 470.5,35.5 C 470.483,37.0281 469.816,37.5281 468.5,37C 469.044,36.2828 469.711,35.7828 470.5,35.5 Z M 483.5,37.5 C 485.027,37.427 486.027,38.0937 486.5,39.5C 484.973,39.573 483.973,38.9063 483.5,37.5 Z M 467.5,38.5 C 469.337,38.6395 469.67,39.3061 468.5,40.5C 467.702,40.0431 467.369,39.3764 467.5,38.5 Z M 475.5,54.5 C 476.906,54.9731 477.573,55.9731 477.5,57.5C 476.094,57.0269 475.427,56.0269 475.5,54.5 Z M 481.5,61.5 C 483.332,62.1405 483.665,63.1405 482.5,64.5C 481.614,63.675 481.281,62.675 481.5,61.5 Z M 477.5,69.5 C 478.002,67.9153 479.002,67.4153 480.5,68C 479.756,69.0386 478.756,69.5386 477.5,69.5 Z M 519.5,69.5 C 518.244,69.5386 517.244,69.0386 516.5,68C 517.998,67.4153 518.998,67.9153 519.5,69.5 Z M 334.5,74.5 C 334.027,75.9063 333.027,76.573 331.5,76.5C 331.973,75.0937 332.973,74.427 334.5,74.5 Z M 532.5,82.5 C 533.947,83.6222 534.947,85.1222 535.5,87C 533.227,86.6834 532.227,85.1834 532.5,82.5 Z M 324.5,87.5 C 324.56,86.9569 324.893,86.6236 325.5,86.5C 326.641,88.4213 326.808,90.4213 326,92.5C 325.802,90.6183 325.302,88.9516 324.5,87.5 Z M 534.5,93.5 C 534.573,95.0269 533.906,96.0269 532.5,96.5C 532.427,94.9731 533.094,93.9731 534.5,93.5 Z M 525.5,103.5 C 525.842,102.662 526.508,102.328 527.5,102.5C 527.591,104.698 526.925,105.031 525.5,103.5 Z M 332.5,103.5 C 334.38,103.229 335.713,103.896 336.5,105.5C 334.62,105.771 333.287,105.104 332.5,103.5 Z M 518.5,110.5 C 518.027,111.906 517.027,112.573 515.5,112.5C 515.973,111.094 516.973,110.427 518.5,110.5 Z M 481.5,111.5 C 483.708,112.918 484.542,114.918 484,117.5C 482.681,115.713 481.848,113.713 481.5,111.5 Z M 482.5,120.5 C 482.517,118.972 483.184,118.472 484.5,119C 483.956,119.717 483.289,120.217 482.5,120.5 Z M 473.5,128.5 C 475.379,128.393 475.712,128.893 474.5,130C 471.125,130.632 470.791,130.132 473.5,128.5 Z M 500.5,128.5 C 500.027,129.906 499.027,130.573 497.5,130.5C 497.973,129.094 498.973,128.427 500.5,128.5 Z M 469.5,146.5 C 467.668,145.86 467.335,144.86 468.5,143.5C 469.386,144.325 469.719,145.325 469.5,146.5 Z M 469.5,146.5 C 472.721,146.982 476.054,146.982 479.5,146.5C 479.389,147.117 479.056,147.617 478.5,148C 475.833,148.667 473.167,148.667 470.5,148C 469.944,147.617 469.611,147.117 469.5,146.5 Z"/></g>
</svg>
