<?xml version="1.0" encoding="UTF-8"?>
<!DOCTYPE svg PUBLIC "-//W3C//DTD SVG 1.1//EN" "http://www.w3.org/Graphics/SVG/1.1/DTD/svg11.dtd">
<svg xmlns="http://www.w3.org/2000/svg" version="1.1" width="968px" height="191px" style="shape-rendering:geometricPrecision; text-rendering:geometricPrecision; image-rendering:optimizeQuality; fill-rule:evenodd; clip-rule:evenodd" xmlns:xlink="http://www.w3.org/1999/xlink">
<g><path style="opacity:1" fill="#000000" d="M 18.5,-0.5 C 26.1667,-0.5 33.8333,-0.5 41.5,-0.5C 43.2734,13.5689 51.2734,19.7355 65.5,18C 74.1538,14.8562 78.4871,8.6895 78.5,-0.5C 86.1667,-0.5 93.8333,-0.5 101.5,-0.5C 103.273,13.5689 111.273,19.7355 125.5,18C 134.154,14.8562 138.487,8.6895 138.5,-0.5C 146.167,-0.5 153.833,-0.5 161.5,-0.5C 163.273,13.5689 171.273,19.7355 185.5,18C 194.154,14.8562 198.487,8.6895 198.5,-0.5C 206.167,-0.5 213.833,-0.5 221.5,-0.5C 223.273,13.5689 231.273,19.7355 245.5,18C 254.154,14.8562 258.487,8.6895 258.5,-0.5C 266.167,-0.5 273.833,-0.5 281.5,-0.5C 283.273,13.5689 291.273,19.7355 305.5,18C 314.154,14.8562 318.487,8.6895 318.5,-0.5C 326.167,-0.5 333.833,-0.5 341.5,-0.5C 343.273,13.5689 351.273,19.7355 365.5,18C 374.154,14.8562 378.487,8.6895 378.5,-0.5C 386.167,-0.5 393.833,-0.5 401.5,-0.5C 403.273,13.5689 411.273,19.7355 425.5,18C 434.154,14.8562 438.487,8.6895 438.5,-0.5C 446.167,-0.5 453.833,-0.5 461.5,-0.5C 463.273,13.5689 471.273,19.7355 485.5,18C 494.154,14.8562 498.487,8.6895 498.5,-0.5C 506.167,-0.5 513.833,-0.5 521.5,-0.5C 523.273,13.5689 531.273,19.7355 545.5,18C 554.154,14.8562 558.487,8.6895 558.5,-0.5C 566.167,-0.5 573.833,-0.5 581.5,-0.5C 583.273,13.5689 591.273,19.7355 605.5,18C 614.154,14.8562 618.487,8.6895 618.5,-0.5C 628.167,-0.5 637.833,-0.5 647.5,-0.5C 649.273,13.5689 657.273,19.7355 671.5,18C 680.154,14.8562 684.487,8.6895 684.5,-0.5C 692.167,-0.5 699.833,-0.5 707.5,-0.5C 709.273,13.5689 717.273,19.7355 731.5,18C 740.154,14.8562 744.487,8.6895 744.5,-0.5C 752.167,-0.5 759.833,-0.5 767.5,-0.5C 769.273,13.5689 777.273,19.7355 791.5,18C 800.154,14.8562 804.487,8.6895 804.5,-0.5C 812.167,-0.5 819.833,-0.5 827.5,-0.5C 829.273,13.5689 837.273,19.7355 851.5,18C 860.154,14.8562 864.487,8.6895 864.5,-0.5C 872.167,-0.5 879.833,-0.5 887.5,-0.5C 889.273,13.5689 897.273,19.7355 911.5,18C 920.154,14.8562 924.487,8.6895 924.5,-0.5C 932.167,-0.5 939.833,-0.5 947.5,-0.5C 948.309,11.9754 954.976,18.3088 967.5,18.5C 967.5,75.8333 967.5,133.167 967.5,190.5C 644.833,190.5 322.167,190.5 -0.5,190.5C -0.5,133.167 -0.5,75.8333 -0.5,18.5C 11.5,17.8333 17.8333,11.5 18.5,-0.5 Z"/></g>
</svg>
