<?xml version="1.0" encoding="UTF-8"?>
<!DOCTYPE svg PUBLIC "-//W3C//DTD SVG 1.1//EN" "http://www.w3.org/Graphics/SVG/1.1/DTD/svg11.dtd">
<svg xmlns="http://www.w3.org/2000/svg" version="1.1" width="968px" height="191px" style="shape-rendering:geometricPrecision; text-rendering:geometricPrecision; image-rendering:optimizeQuality; fill-rule:evenodd; clip-rule:evenodd" xmlns:xlink="http://www.w3.org/1999/xlink">
<g><path style="opacity:1" fill="#000000" d="M -0.5,-0.5 C 0.166667,-0.5 0.833333,-0.5 1.5,-0.5C 322.833,0.833333 644.167,0.833333 965.5,-0.5C 966.167,-0.5 966.833,-0.5 967.5,-0.5C 967.5,57.1667 967.5,114.833 967.5,172.5C 955.449,172.552 948.782,178.552 947.5,190.5C 939.833,190.5 932.167,190.5 924.5,190.5C 922.484,176.645 914.484,170.812 900.5,173C 892.148,175.878 887.815,181.711 887.5,190.5C 879.833,190.5 872.167,190.5 864.5,190.5C 862.484,176.645 854.484,170.812 840.5,173C 832.148,175.878 827.815,181.711 827.5,190.5C 819.833,190.5 812.167,190.5 804.5,190.5C 802.484,176.645 794.484,170.812 780.5,173C 772.148,175.878 767.815,181.711 767.5,190.5C 759.833,190.5 752.167,190.5 744.5,190.5C 742.484,176.645 734.484,170.812 720.5,173C 712.148,175.878 707.815,181.711 707.5,190.5C 699.833,190.5 692.167,190.5 684.5,190.5C 682.484,176.645 674.484,170.812 660.5,173C 652.148,175.878 647.815,181.711 647.5,190.5C 637.833,190.5 628.167,190.5 618.5,190.5C 616.484,176.645 608.484,170.812 594.5,173C 586.148,175.878 581.815,181.711 581.5,190.5C 573.833,190.5 566.167,190.5 558.5,190.5C 556.484,176.645 548.484,170.812 534.5,173C 526.148,175.878 521.815,181.711 521.5,190.5C 513.833,190.5 506.167,190.5 498.5,190.5C 496.484,176.645 488.484,170.812 474.5,173C 466.148,175.878 461.815,181.711 461.5,190.5C 453.833,190.5 446.167,190.5 438.5,190.5C 436.484,176.645 428.484,170.812 414.5,173C 406.148,175.878 401.815,181.711 401.5,190.5C 393.833,190.5 386.167,190.5 378.5,190.5C 376.484,176.645 368.484,170.812 354.5,173C 346.148,175.878 341.815,181.711 341.5,190.5C 333.833,190.5 326.167,190.5 318.5,190.5C 316.484,176.645 308.484,170.812 294.5,173C 286.148,175.878 281.815,181.711 281.5,190.5C 273.833,190.5 266.167,190.5 258.5,190.5C 256.484,176.645 248.484,170.812 234.5,173C 226.148,175.878 221.815,181.711 221.5,190.5C 213.833,190.5 206.167,190.5 198.5,190.5C 196.484,176.645 188.484,170.812 174.5,173C 166.148,175.878 161.815,181.711 161.5,190.5C 153.833,190.5 146.167,190.5 138.5,190.5C 136.484,176.645 128.484,170.812 114.5,173C 106.148,175.878 101.815,181.711 101.5,190.5C 93.8333,190.5 86.1667,190.5 78.5,190.5C 76.4844,176.645 68.4844,170.812 54.5,173C 46.1483,175.878 41.8149,181.711 41.5,190.5C 33.8333,190.5 26.1667,190.5 18.5,190.5C 17.3615,179.028 11.0281,173.028 -0.5,172.5C -0.5,114.833 -0.5,57.1667 -0.5,-0.5 Z"/></g>
</svg>
